<?xml version="1.0" encoding="utf-8" ?>
<svg baseProfile="tiny" height="600" version="1.2" width="800" xmlns="http://www.w3.org/2000/svg" xmlns:ev="http://www.w3.org/2001/xml-events" xmlns:xlink="http://www.w3.org/1999/xlink"><defs /><rect fill="#e8e8e8" height="600" width="800" x="0" y="0" /><text fill="#333" font-size="20" font-weight="bold" x="20" y="30">九龙东 Demo 路线</text><line stroke="#cccccc" stroke-width="3" x1="50" x2="750" y1="150" y2="150" /><line stroke="#cccccc" stroke-width="3" x1="50" x2="750" y1="250" y2="250" /><line stroke="#cccccc" stroke-width="3" x1="50" x2="750" y1="350" y2="350" /><line stroke="#cccccc" stroke-width="3" x1="50" x2="750" y1="450" y2="450" /><line stroke="#cccccc" stroke-width="3" x1="150" x2="150" y1="50" y2="550" /><line stroke="#cccccc" stroke-width="3" x1="300" x2="300" y1="50" y2="550" /><line stroke="#cccccc" stroke-width="3" x1="450" x2="450" y1="50" y2="550" /><line stroke="#cccccc" stroke-width="3" x1="600" x2="600" y1="50" y2="550" /><line stroke="#cccccc" stroke-width="3" x1="150" x2="300" y1="150" y2="250" /><line stroke="#cccccc" stroke-width="3" x1="300" x2="450" y1="250" y2="350" /><line stroke="#cccccc" stroke-width="3" x1="450" x2="600" y1="350" y2="450" /><line stroke="#E74C3C" stroke-width="4" x1="150" x2="300" y1="150" y2="250" /><line stroke="#E74C3C" stroke-width="4" x1="300" x2="400" y1="250" y2="300" /><line stroke="#E74C3C" stroke-width="4" x1="400" x2="450" y1="300" y2="350" /><line stroke="#E74C3C" stroke-width="4" x1="450" x2="500" y1="350" y2="400" /><line stroke="#E74C3C" stroke-width="4" x1="500" x2="350" y1="400" y2="300" /><line stroke="#E74C3C" stroke-width="4" x1="350" x2="150" y1="300" y2="150" /><line stroke="#2980B9" stroke-width="4" x1="150" x2="300" y1="150" y2="200" /><line stroke="#2980B9" stroke-width="4" x1="300" x2="500" y1="200" y2="350" /><line stroke="#2980B9" stroke-width="4" x1="500" x2="600" y1="350" y2="400" /><line stroke="#2980B9" stroke-width="4" x1="600" x2="650" y1="400" y2="450" /><line stroke="#2980B9" stroke-width="4" x1="650" x2="500" y1="450" y2="400" /><line stroke="#2980B9" stroke-width="4" x1="500" x2="350" y1="400" y2="300" /><line stroke="#2980B9" stroke-width="4" x1="350" x2="150" y1="300" y2="150" /><line stroke="#27AE60" stroke-width="4" x1="150" x2="300" y1="150" y2="200" /><line stroke="#27AE60" stroke-width="4" x1="300" x2="400" y1="200" y2="250" /><line stroke="#27AE60" stroke-width="4" x1="400" x2="500" y1="250" y2="200" /><line stroke="#27AE60" stroke-width="4" x1="500" x2="400" y1="200" y2="300" /><line stroke="#27AE60" stroke-width="4" x1="400" x2="150" y1="300" y2="150" /><circle cx="150" cy="150" fill="#E74C3C" r="8" /><circle cx="300" cy="250" fill="#E74C3C" r="6" /><circle cx="450" cy="350" fill="#E74C3C" r="6" /><circle cx="150" cy="150" fill="#2980B9" r="8" /><circle cx="500" cy="350" fill="#2980B9" r="6" /><circle cx="600" cy="400" fill="#2980B9" r="6" /><circle cx="150" cy="150" fill="#27AE60" r="8" /><circle cx="400" cy="250" fill="#27AE60" r="6" /><circle cx="500" cy="200" fill="#27AE60" r="6" /><text fill="#333" font-size="12" x="160" y="140">协调道 (起点)</text><text fill="#666" font-size="10" x="310" y="240">承启道</text><text fill="#666" font-size="10" x="510" y="340">观塘道</text><text fill="#666" font-size="10" x="510" y="190">邮轮码头</text><text fill="#666" font-size="10" x="460" y="340">启成街</text><rect fill="white" height="120" stroke="#333" stroke-width="1" width="180" x="600" y="80" /><text fill="#333" font-size="14" font-weight="bold" x="610" y="100">图例</text><line stroke="#E74C3C" stroke-width="4" x1="610" x2="640" y1="120" y2="120" /><text fill="#333" font-size="10" x="650" y="124">路线 A: 启德核心区</text><line stroke="#2980B9" stroke-width="4" x1="610" x2="640" y1="140" y2="140" /><text fill="#333" font-size="10" x="650" y="144">路线 B: 跨区综合</text><line stroke="#27AE60" stroke-width="4" x1="610" x2="640" y1="160" y2="160" /><text fill="#333" font-size="10" x="650" y="164">路线 C: 邮轮码头</text></svg>